D:\school\WTK\thesis\model\3dpredictsim\Results\Batchsim_tmt_linear_v2\Pog_s1_tmt_bCst_d02_k1000_ig24_act_GRF.mot
nRows=15
nColumns=19

name D:\school\WTK\thesis\model\3dpredictsim\Results\Batchsim_tmt_linear_v2\Pog_s1_tmt_bCst_d02_k1000_ig24_act_GRF.mot
datacolumns 19
datarows 15
range 0.0000000000 0.1817322394
endheader
time 	ground_force_vx	ground_force_vy	ground_force_vz	ground_force_px	ground_force_py	ground_force_pz	1_ground_force_vx	1_ground_force_vy	1_ground_force_vz	1_ground_force_px	1_ground_force_py	1_ground_force_pz	ground_torque_x	ground_torque_y	ground_torque_z	1_ground_torque_x	1_ground_torque_y	1_ground_torque_z
        0.0000000000	      -31.9997666462	       25.1203357871	        3.0686011811	        0.2312882313	        0.0000000000	        0.0531804052	       98.0444022869	      368.6398476797	        3.4295870560	       -0.3806115501	        0.0000000000	       -0.0439781605	        0.0000000000	        0.0000000000	        0.0000000000	        0.0000000000	        0.0000000000	        0.0000000000	
        0.0129808742	     -124.4047146113	      120.1251614557	       12.5150472366	        0.2394648090	        0.0000000000	        0.0523748547	       38.8982173629	      233.2138630452	       -7.2432982698	       -0.3390906194	        0.0000000000	       -0.0401281630	        0.0000000000	        0.0000000000	        0.0000000000	        0.0000000000	        0.0000000000	        0.0000000000	
        0.0259617485	      -89.8200172202	      359.8730921727	       -0.4093731360	        0.2450883181	        0.0000000000	        0.0516912423	       22.6557935443	      188.4549336142	       -9.6181675572	       -0.3285889197	        0.0000000000	       -0.0379700770	        0.0000000000	        0.0000000000	        0.0000000000	        0.0000000000	        0.0000000000	        0.0000000000	
        0.0389426227	     -106.5114098128	      605.2933062195	      -10.1697582071	        0.2479827834	        0.0000000000	        0.0517466455	       21.6633842568	      147.9685190675	      -10.8504752723	       -0.3280286420	        0.0000000000	       -0.0381619581	        0.0000000000	        0.0000000000	        0.0000000000	        0.0000000000	        0.0000000000	        0.0000000000	
        0.0519234970	     -165.5856261409	      832.9311770713	      -19.1460115239	        0.2571738483	        0.0000000000	        0.0536288912	       15.3622893649	       97.8759245809	      -12.1550158821	       -0.3274986301	        0.0000000000	       -0.0385215685	        0.0000000000	        0.0000000000	        0.0000000000	        0.0000000000	        0.0000000000	        0.0000000000	
        0.0649043712	     -206.8431426066	      968.1778428191	      -23.1926392654	        0.2672869158	        0.0000000000	        0.0558551098	        1.2841366831	       39.6946491098	       -7.4885924803	       -0.3277793081	        0.0000000000	       -0.0387494356	        0.0000000000	        0.0000000000	        0.0000000000	        0.0000000000	        0.0000000000	        0.0000000000	
        0.0778852455	     -199.8864558941	      956.0490789599	      -22.4648424969	        0.2741315045	        0.0000000000	        0.0572000383	        0.2627830339	       -0.2605457246	        0.0000955589	        0.0000000000	        0.0000000000	        0.0000000000	        0.0000000000	        0.0000000000	        0.0000000000	        0.0000000000	        0.0000000000	        0.0000000000	
        0.0908661197	     -172.2423888087	      872.5164310004	      -19.6252612123	        0.2791459225	        0.0000000000	        0.0580811443	        0.0047320781	       -0.0036879572	       -0.0003459114	        0.0000000000	        0.0000000000	        0.0000000000	        0.0000000000	        0.0000000000	        0.0000000000	        0.0000000000	        0.0000000000	        0.0000000000	
        0.1038469939	     -146.5205214984	      791.0628870803	      -17.3743709553	        0.2832281947	        0.0000000000	        0.0586794599	        0.0463594873	       -0.0307524028	       -0.0037855011	        0.0000000000	        0.0000000000	        0.0000000000	        0.0000000000	        0.0000000000	        0.0000000000	        0.0000000000	        0.0000000000	        0.0000000000	
        0.1168278682	     -127.2134192892	      736.1913327923	      -14.9929491314	        0.2871205289	        0.0000000000	        0.0590714422	       -0.4550741367	        0.2683307916	        0.0363303651	        0.0000000000	        0.0000000000	        0.0000000000	        0.0000000000	        0.0000000000	        0.0000000000	        0.0000000000	        0.0000000000	        0.0000000000	
        0.1298087424	     -112.9855829349	      708.4620135513	      -14.6833929348	        0.2917275507	        0.0000000000	        0.0594401805	       -0.5740220353	        0.3107174079	        0.0421331799	        0.0000000000	        0.0000000000	        0.0000000000	        0.0000000000	        0.0000000000	        0.0000000000	        0.0000000000	        0.0000000000	        0.0000000000	
        0.1427896167	     -103.3583642129	      692.5638218891	      -14.9062270542	        0.2975477915	        0.0000000000	        0.0594093224	       -0.3462658671	        0.1754626074	        0.0228198818	        0.0000000000	        0.0000000000	        0.0000000000	        0.0000000000	        0.0000000000	        0.0000000000	        0.0000000000	        0.0000000000	        0.0000000000	
        0.1557704909	      -93.9631976226	      673.5242724685	      -14.8879341313	        0.3032061289	        0.0000000000	        0.0592025023	       -0.2257050487	        0.1092757024	        0.0122909522	        0.0000000000	        0.0000000000	        0.0000000000	        0.0000000000	        0.0000000000	        0.0000000000	        0.0000000000	        0.0000000000	        0.0000000000	
        0.1687513651	      -85.1951292628	      652.5392686836	      -15.0254049739	        0.3083479472	        0.0000000000	        0.0589632849	       -0.1793579163	        0.0835816716	        0.0079950872	        0.0000000000	        0.0000000000	        0.0000000000	        0.0000000000	        0.0000000000	        0.0000000000	        0.0000000000	        0.0000000000	        0.0000000000	
        0.1817322394	      -77.5337001655	      633.7782810331	      -15.4103358145	        0.3131766137	        0.0000000000	        0.0586435493	       -0.1762165516	        0.0795309869	        0.0062962794	        0.0000000000	        0.0000000000	        0.0000000000	        0.0000000000	        0.0000000000	        0.0000000000	        0.0000000000	        0.0000000000	        0.0000000000	
